{
  "asset": {
    "version": "2.0",
    "generator": "gltfeditor.com"
  },
  "buffers": [
    {
      "uri": "data:application/octet-stream;base64,",
      "byteLength": 34080
    }
  ],
  "bufferViews": [
    {
      "buffer": 0,
      "byteLength": 24048,
      "byteOffset": 10032,
      "byteStride": 12,
      "target": 34962
    },
    {
      "buffer": 0,
      "byteLength": 8016,
      "byteOffset": 2008,
      "byteStride": 8,
      "target": 34962
    },
    {
      "buffer": 0,
      "byteLength": 2004,
      "byteOffset": 0,
      "byteStride": 0,
      "target": 34963
    }
  ],
  "accessors": [
    {
      "bufferView": 0,
      "byteOffset": 12024,
      "componentType": 5126,
      "count": 1002,
      "max": [
        1,
        1,
        0.9964619874954224
      ],
      "min": [
        -1,
        -0.9999880194664001,
        -1
      ],
      "sparse": null,
      "type": "VEC3"
    },
    {
      "bufferView": 0,
      "byteOffset": 0,
      "componentType": 5126,
      "count": 1002,
      "max": [
        2.3047609329223633,
        0.9135239720344543,
        24.651514053344727
      ],
      "min": [
        -2.298551082611084,
        -0.973904013633728,
        -21.551557540893555
      ],
      "sparse": null,
      "type": "VEC3"
    },
    {
      "bufferView": 1,
      "byteOffset": 0,
      "componentType": 5126,
      "count": 1002,
      "max": [
        0.9334669709205627,
        -0.060343001037836075
      ],
      "min": [
        0.10082899779081345,
        -0.9537680149078369
      ],
      "sparse": null,
      "type": "VEC2"
    },
    {
      "bufferView": 2,
      "byteOffset": 0,
      "componentType": 5123,
      "normalized": false,
      "count": 1002,
      "max": [
        1001
      ],
      "min": [
        0
      ],
      "sparse": null,
      "type": "SCALAR"
    }
  ],
  "scene": 0,
  "scenes": [
    {
      "nodes": [
        0
      ]
    }
  ],
  "nodes": [
    {
      "children": [],
      "matrix": [
        1,
        0,
        0,
        0,
        0,
        1,
        0,
        0,
        0,
        0,
        1,
        0,
        0,
        0,
        0,
        1
      ],
      "mesh": 0
    }
  ],
  "cameras": [],
  "meshes": [
    {
      "primitives": [
        {
          "attributes": {
            "NORMAL": 0,
            "POSITION": 1,
            "TEXCOORD_0": 2
          },
          "material": 0,
          "mode": 4,
          "indices": 3
        }
      ]
    }
  ],
  "materials": [
    {
      "pbrMetallicRoughness": {
        "baseColorFactor": [
          1,
          1,
          1,
          1
        ],
        "baseColorTexture": {
          "index": 0,
          "texCoord": 0
        },
        "metallicFactor": 0,
        "roughnessFactor": 0.9699476628648295,
        "metallicRoughnessTexture": null
      },
      "normalTexture": null,
      "occlusionTexture": null,
      "emissiveTexture": null,
      "emissiveFactor": [
        0,
        0,
        0
      ],
      "alphaMode": "OPAQUE",
      "alphaCutoff": 0.5,
      "doubleSided": true
    }
  ],
  "textures": [
    {
      "sampler": 0,
      "source": 0
    }
  ],
  "samplers": [
    {
      "magFilter": 9729,
      "minFilter": 9987,
      "wrapS": 10497,
      "wrapT": 10497
    }
  ],
  "images": [
    {
      "uri": "data:image/png;base64,",
      "mimeType": ""
    }
  ]
}